HIERARCHY
ROOT Pelvis
{
	OFFSET 0.000000 0.000000 0.000000
	CHANNELS 6 Xposition Yposition Zposition Zrotation Yrotation Xrotation 
	JOINT Left_hip
	{
		OFFSET 0.070241 -0.085575 -0.010474
		CHANNELS 3 Zrotation Yrotation Xrotation
		JOINT Left_knee
		{
			OFFSET 0.032125 -0.356873 -0.000555
			CHANNELS 3 Zrotation Yrotation Xrotation
			JOINT Left_ankle
			{
				OFFSET -0.010961 -0.370212 -0.042278
				CHANNELS 3 Zrotation Yrotation Xrotation
				JOINT Left_foot
				{
					OFFSET 0.023322 -0.052281 0.110104
					CHANNELS 3 Zrotation Yrotation Xrotation
					End Site
					{
						OFFSET 0.000000 0.000000 0.000000
					}
				}
			}
		}
	}
	JOINT Right_hip
	{
		OFFSET -0.068518 -0.084320 -0.007402
		CHANNELS 3 Zrotation Yrotation Xrotation
		JOINT Right_knee
		{
			OFFSET -0.037345 -0.364815 -0.003619
			CHANNELS 3 Zrotation Yrotation Xrotation
			JOINT Right_ankle
			{
				OFFSET 0.013394 -0.370006 -0.039954
				CHANNELS 3 Zrotation Yrotation Xrotation
				JOINT Right_foot
				{
					OFFSET -0.019600 -0.045455 0.113223
					CHANNELS 3 Zrotation Yrotation Xrotation
					End Site
					{
						OFFSET 0.000000 0.000000 0.000000
					}
				}
			}
		}
	}
	JOINT Spine1
	{
		OFFSET -0.002404 0.098129 -0.018169
		CHANNELS 3 Zrotation Yrotation Xrotation
		JOINT Spine2
		{
			OFFSET 0.003989 0.127209 -0.001742
			CHANNELS 3 Zrotation Yrotation Xrotation
			JOINT Spine3
			{
				OFFSET 0.001758 0.046641 0.023475
				CHANNELS 3 Zrotation Yrotation Xrotation
				JOINT Neck
				{
					OFFSET -0.003759 0.194901 -0.039982
					CHANNELS 3 Zrotation Yrotation Xrotation
					JOINT Head
					{
						OFFSET 0.003999 0.063756 0.047665
						CHANNELS 3 Zrotation Yrotation Xrotation
						End Site
						{
							OFFSET 0.000000 0.000000 0.000000
						}
					}
				}
				JOINT Left_collar
				{
					OFFSET 0.071816 0.109048 -0.028973
					CHANNELS 3 Zrotation Yrotation Xrotation
					JOINT Left_shoulder
					{
						OFFSET 0.084027 0.032269 -0.006525
						CHANNELS 3 Zrotation Yrotation Xrotation
						JOINT Left_elbow
						{
							OFFSET 0.243854 -0.013992 -0.025905
							CHANNELS 3 Zrotation Yrotation Xrotation
							JOINT Left_wrist
							{
								OFFSET 0.232156 0.008196 -0.000339
								CHANNELS 3 Zrotation Yrotation Xrotation
								JOINT Left_palm
								{
									OFFSET 0.075377 -0.009461 -0.012494
									CHANNELS 3 Zrotation Yrotation Xrotation
									End Site
									{
										OFFSET 0.000000 0.000000 0.000000
									}
								}
							}
						}
					}
				}
				JOINT Right_collar
				{
					OFFSET -0.073768 0.107001 -0.033755
					CHANNELS 3 Zrotation Yrotation Xrotation
					JOINT Right_shoulder
					{
						OFFSET -0.086837 0.032868 -0.009431
						CHANNELS 3 Zrotation Yrotation Xrotation
						JOINT Right_elbow
						{
							OFFSET -0.236446 -0.012544 -0.018747
							CHANNELS 3 Zrotation Yrotation Xrotation
							JOINT Right_wrist
							{
								OFFSET -0.236110 0.006124 -0.004327
								CHANNELS 3 Zrotation Yrotation Xrotation
								JOINT Right_palm
								{
									OFFSET -0.074800 -0.006875 -0.009610
									CHANNELS 3 Zrotation Yrotation Xrotation
									End Site
									{
										OFFSET 0.000000 0.000000 0.000000
									}
								}
							}
						}
					}
				}
			}
		}
	}
}
MOTION
Frames: 11
Frame Time: 0.100000
-0.123246 0.563652 -0.183003 177.204920 19.384686 -11.459537 27.325901 8.280208 -31.273129 -16.645570 5.389408 121.803376 -13.821803 14.205035 50.021711 11.638835 11.182469 -64.842103 -17.951719 -2.122632 -68.687544 14.051141 -5.847775 140.608794 5.802723 -8.767300 -43.201179 -48.184227 4.897836 -20.247036 3.829399 -7.724728 34.636003 -0.593350 0.209445 2.269542 1.552829 1.160655 -3.110843 -0.308962 -32.009525 -18.179611 19.250184 -18.807114 -12.349072 -15.652028 -12.859990 1.199068 -56.790204 -20.034784 9.137712 167.874760 -81.396730 -137.203820 20.496632 -2.656781 6.206141 -30.490135 -17.057434 -3.588538 14.295555 16.148337 5.398810 49.597743 6.092152 -1.362397 -24.213298 27.152828 -5.017327 -12.600796 3.428777 0.135942 27.059122 16.929456 -1.344787 
-0.073988 0.598078 -0.175879 -176.933495 15.755784 -10.037235 30.294700 11.555746 -29.666674 -16.607907 5.439652 123.913598 -14.892023 15.915922 48.535676 13.123374 10.663374 -66.449364 -16.955286 -2.064303 -77.017298 12.551413 -8.674257 148.240938 5.211105 -9.656102 -47.721150 -48.794252 5.693828 -19.621813 4.754941 -10.756524 37.044544 -3.019280 1.340899 -0.173575 0.519991 2.099383 -2.122072 -3.283644 -30.702153 -18.764458 16.726431 -14.868363 -12.516454 -16.100135 -13.862136 1.313528 -59.240242 -15.705539 9.261232 179.532727 -78.778190 -149.201923 22.240834 -2.555731 2.965596 -30.363447 -16.622728 -2.928806 10.792930 19.250417 6.431719 43.597569 9.924263 -4.546193 -19.987219 23.774285 0.242177 -14.648338 4.019294 3.491703 26.462671 15.910748 -0.654710 
-0.029896 0.623797 -0.164463 -169.366644 14.149370 -9.776649 29.237154 11.982411 -26.448751 -17.569361 4.776665 122.818965 -16.301695 18.899913 49.352139 17.411200 10.347513 -67.754119 -16.123316 -1.537706 -81.482811 10.627996 -10.370147 154.869366 5.276251 -12.047069 -51.064083 -50.544626 7.264730 -20.511696 6.610123 -14.017698 38.163457 -6.807241 2.072104 -0.906144 -1.844085 3.352374 -1.164597 -8.700833 -31.446811 -17.016989 14.053607 -9.953282 -12.989387 -18.392589 -13.168351 1.638242 -59.701519 -11.884675 8.533157 -175.593495 -74.951270 -154.053089 24.278924 -3.870060 1.829474 -31.114498 -17.102021 -2.669893 7.373115 20.865745 7.196397 37.984667 12.430332 -8.347656 -17.303796 18.517324 1.265860 -16.374666 5.590210 5.326192 26.186890 15.819547 -0.076829 
0.013873 0.636321 -0.157003 -162.901089 13.712666 -8.339923 25.638029 9.974212 -26.731368 -19.750791 4.234519 121.291169 -18.371319 20.071598 46.925498 21.784929 10.867824 -66.576144 -13.946401 0.154198 -83.842259 8.243976 -11.585475 157.769726 4.280732 -16.956747 -55.373394 -48.685952 9.601906 -19.662574 6.792329 -15.725319 39.701297 -8.372204 1.597933 -1.387950 -2.421950 3.223070 -1.124943 -12.624919 -30.681995 -17.428052 12.261515 -4.921722 -14.920863 -19.432947 -13.545017 2.093304 -56.784660 -12.237312 7.858432 -178.897249 -72.008031 -152.256014 25.806358 -4.857164 0.438695 -32.006867 -17.700183 -3.017542 5.719757 21.220939 6.515732 31.888080 13.046509 -11.429698 -17.491429 15.606143 -2.078029 -18.808365 6.540638 3.651787 26.845741 16.002955 0.970565 
0.064585 0.645842 -0.157389 -157.444466 16.017235 -6.190838 25.094894 5.047423 -29.072407 -20.430287 -0.383280 117.331895 -14.746514 23.016092 45.026496 21.810794 10.086483 -62.832531 -11.939143 2.156157 -86.808327 6.593211 -12.410683 158.645661 3.277196 -20.844886 -56.863111 -46.040441 11.101871 -18.501209 4.447666 -14.922227 41.455692 -8.476654 0.982754 -0.426292 -2.031738 2.581299 -2.827785 -14.784772 -29.145082 -19.244047 14.167968 -3.587211 -15.569272 -18.623235 -17.592185 1.291483 -50.853867 -21.568083 8.194922 178.462414 -68.750259 -151.159118 30.532501 -5.486882 0.801188 -32.257594 -16.754266 -2.165783 5.563874 20.511535 5.559938 32.474143 10.628937 -12.394055 -20.089123 11.844804 -6.845978 -23.170662 4.939105 0.045471 29.236962 16.686048 3.205995 
0.116522 0.656378 -0.170625 -152.055700 18.553494 -2.881615 27.812466 3.424035 -32.274111 -18.692032 -8.011557 106.093177 -9.374871 26.254024 30.973382 19.981729 7.739656 -54.927974 -11.387681 4.326154 -92.894899 6.971113 -12.746838 158.676847 4.303245 -20.714620 -56.994527 -45.470407 12.858574 -17.615268 1.479323 -13.968127 46.736270 -8.391318 0.567842 -3.313683 -1.277765 1.986088 -4.722525 -17.461418 -25.593884 -22.423775 16.698952 -3.694864 -17.497554 -16.172677 -22.635439 -2.575769 -45.983144 -35.963080 8.247660 172.710046 -64.113462 -148.448076 29.090002 -5.593502 2.519278 -33.107418 -16.466671 -2.584129 5.723756 20.532338 4.709002 37.916409 9.168211 -10.529185 -18.128493 3.318860 -5.213565 -17.612475 0.231523 -4.858673 30.555407 18.129921 6.056982 
0.156270 0.680482 -0.183633 -146.072923 23.334512 -1.252179 27.512944 3.393689 -34.621189 -16.927249 -13.635544 91.550112 -5.371881 28.335677 6.144580 14.783909 4.268500 -43.655941 -12.856500 4.980988 -97.683022 7.907300 -12.461196 160.133623 6.082979 -17.163589 -56.818427 -43.117194 12.572247 -17.053740 -1.089183 -14.406468 49.516319 -6.547705 -1.260015 -1.827635 -0.653382 0.850718 -3.989999 -20.020708 -18.044541 -23.253235 17.918592 -4.019490 -22.694540 -5.364296 -29.040899 -7.909184 -36.659166 -51.993778 0.170167 158.772591 -61.507685 -133.209594 52.121964 -9.200469 -2.054975 -25.877402 -10.259384 -1.330229 0.010800 21.538505 2.220119 47.838760 10.220704 -10.853084 -25.607496 3.340566 -9.157308 -44.116477 -0.845896 -17.407520 26.798574 13.187532 12.952798 
0.181808 0.701657 -0.191780 -146.351255 28.286978 -2.793391 28.176136 4.998657 -33.697420 -14.986900 -18.928627 76.199200 -7.522261 27.541981 11.966462 16.938555 4.718529 -42.738957 -11.197207 5.477462 -99.490097 6.195206 -12.925495 160.716612 5.606950 -19.465383 -54.300042 -41.621235 13.093919 -17.191447 -3.750900 -15.201448 51.488401 -5.776623 -3.947277 -3.030587 0.210959 -0.772777 -3.527126 -18.448103 -14.013305 -24.564389 21.098112 -1.944909 -16.371726 -3.614505 -35.837375 -9.882378 -20.646403 -62.097198 -12.275803 152.865936 -57.618508 -130.821831 67.595607 -8.917496 -4.404459 -26.461765 -9.293689 2.950658 0.534839 23.500138 0.782026 48.882570 10.803774 -8.787820 -22.429446 5.154381 -8.852206 -52.607010 -2.389027 -19.112737 26.063447 13.679649 16.353772 
0.193823 0.712564 -0.196605 -149.189126 32.270389 -4.661943 30.238790 6.039500 -33.885969 -13.812652 -23.260357 72.022642 -8.897317 25.335552 10.477154 15.967040 5.105061 -41.181747 -10.637407 3.799402 -100.352941 4.680963 -13.525705 160.710617 4.839955 -18.495097 -52.404767 -40.120528 13.130075 -15.138225 -2.750549 -15.000273 50.887102 -4.619152 -3.560840 -3.605298 1.461285 -1.203220 -4.152747 -22.287031 -14.928618 -24.046120 17.790875 -3.388051 -15.048237 -6.509278 -40.923719 -9.664906 -23.154169 -68.105809 -12.062937 150.567531 -52.987627 -128.202755 69.053244 -10.336110 -0.770632 -29.255460 -11.298273 2.539137 3.884976 24.895036 1.100865 46.651378 8.223922 -10.804781 -23.551710 3.387659 -9.741299 -50.447052 -1.861303 -14.816514 29.391944 16.364881 14.609460 
0.201716 0.727092 -0.200124 -148.259861 34.845525 -5.204702 31.049551 6.785469 -34.156240 -15.056783 -25.236358 67.502240 -11.169046 21.990202 11.726250 16.400390 5.849621 -41.698487 -10.622310 3.717066 -102.599767 4.415605 -13.677253 161.961484 5.393956 -17.730582 -49.651118 -42.710844 12.968616 -16.003420 -3.819372 -14.348616 52.440722 -5.838744 -3.484271 -3.719689 1.307634 -1.167133 -4.672156 -23.668293 -16.018464 -25.678363 18.777635 -3.747114 -16.261566 -8.320712 -44.423650 -9.509655 -33.073084 -72.087378 -2.062249 151.924746 -52.364735 -129.773987 66.580225 -10.749580 -0.583444 -30.732423 -12.816460 0.966299 4.740988 25.786678 1.581906 48.328946 6.772549 -10.823316 -24.732411 0.087855 -11.331118 -47.921756 -2.914696 -15.819296 30.668562 18.054855 13.879413 
0.210000 0.737244 -0.203184 -147.062837 37.631583 -5.545041 31.806201 8.755921 -29.468526 -11.806367 -30.041098 50.326580 -13.681420 18.316083 12.055606 17.037169 6.070033 -40.223520 -10.838431 2.891359 -103.052906 4.328528 -13.575985 162.705258 6.146001 -15.582588 -47.704684 -44.422208 11.912049 -16.530030 -5.114292 -16.108158 54.618719 -7.179053 -4.786517 -2.009889 0.614748 -1.808014 -5.065546 -24.287127 -15.773195 -28.889914 18.793288 -1.528396 -18.928109 -11.674369 -48.114560 -7.320252 -42.416736 -71.065513 6.992105 156.492911 -50.965265 -132.769875 65.420063 -11.861710 -0.405792 -31.151982 -13.843122 -0.320843 4.626534 27.822599 1.950612 49.663381 9.142231 -11.292866 -25.603474 -3.245140 -13.526165 -47.039928 -3.294167 -16.695324 29.712160 18.393182 13.621895 
